<svg xmlns="http://www.w3.org/2000/svg" viewBox="0 0 2800 2800">
    <g transform="matrix(1.3333333,0,0,-1.3333333,0,2800)">
        <g transform="scale(0.1)">
            <g transform="scale(1.19748)">
                <path fill="currentColor" d="m 11686.3,13036.3 c -7.8,109.5 -120.8,164.7 -102.3,192.1 16.9,25.2 130.8,5.9 197.8,-66.3 51.7,-55.6 83.9,-151.6 40.9,-231.9 -51.6,-96.5 -188.4,-126.9 -211.4,-99.3 -23,27.5 82.9,94.9 75,205.4 z m -2346.53,887.8 c -66.39,69.2 -417.13,-184.9 -443.43,-152.4 -19.21,23.8 112.49,230.1 327.44,284.9 175.36,44.7 299.71,-38.5 668.48,-212 470.14,-221.1 805.24,-338.5 791.34,-377.7 -10.6,-29.7 -194.6,60.1 -416.1,-19.9 -112.9,-40.7 -123.1,-84.8 -238.8,-112.6 -142.95,-34.3 -264.54,0.1 -334.27,19.9 -101.46,28.7 -251.95,71.3 -320.59,198.8 -30.4,56.4 -37.41,115.7 -40.92,145.7 -16.03,135.9 35.16,195.7 6.85,225.3 z M 12500.9,2869.61 c -118.1,211.19 -378.9,473.74 -766.9,864.23 -345.4,347.73 -784.4,728.44 -1664.4,1311.92 -596.97,395.74 -1243.16,782.89 -2203.29,1358.26 -398.35,238.67 -837.08,498.55 -1282.42,964.03 -320.64,335.03 -503.33,628.9 -624.17,881.18 -134.74,281.26 -194.86,515.41 -218.29,616.21 -48.88,210.27 -131.17,581.42 -40.92,1036.89 31.8,160.47 66.37,334.97 187.59,530.07 167.66,269.8 366.73,362.7 341.07,410.8 -37.44,70.1 -518.63,-20.1 -931.12,-294.9 -94.5,-62.9 -598.68,-410.8 -784.47,-1040.2 -84.25,-285.43 -81.34,-555.31 -78.44,-824.88 3.82,-355.07 54.28,-580.96 40.92,-583.05 -18.74,-3.01 -175.59,432.49 -163.71,970.62 5.94,269.65 15.78,714.51 313.78,1159.51 58.13,86.8 223.4,317.2 521.84,516.8 420.72,281.4 836.72,321.4 1033.44,337.9 471.27,39.6 829.13,-71 1070.97,-145.8 329.55,-101.8 567.42,-231.9 770.83,-344.5 247.49,-137 261.31,-171.1 733.34,-480.4 362.59,-237.58 577.12,-377.39 876.5,-536.63 281.84,-149.93 491.15,-259.81 798.05,-351.17 125,-37.18 346,-62.35 787.9,-112.62 97.8,-11.11 182.2,-19.71 201.3,16.53 37.4,71.07 -200.4,268.56 -385.5,387.63 -273.8,176.26 -485.2,214.93 -480.8,228.58 6.1,19.56 459.9,3.11 818.5,-301.47 78.2,-66.35 224.8,-208.45 320.6,-427.39 52.9,-120.84 69,-221.38 99,-417.38 56.8,-371.78 44,-619.05 61.4,-619.46 16.9,-0.5 51.9,235.58 61.3,493.53 8.6,233.99 -9.1,341.97 30.7,354.5 44.7,14.03 122.7,-104.22 266,-324.69 161.6,-248.43 202.1,-347.22 218.3,-341.21 33.2,12.28 -89.6,438 -248.9,722.26 -77.6,138.3 -116.3,207.36 -177.4,261.72 -66,58.62 -128.1,87.76 -126.2,139.1 2.1,58.66 84.7,66.55 109.2,149.08 17.6,59.73 -7.9,115.37 -34.2,172.27 -8.1,17.69 -45,94.64 -136.4,168.95 -75.3,61.3 -148,88.36 -177.3,99.39 -157.4,59.11 -310.2,128.98 -467.3,188.78 -111.3,42.5 -352.2,136.4 -579.8,328 -142.7,120.1 -232.3,238.3 -358.2,404.2 -105.8,139.5 -161.1,212.4 -218.2,331.3 -80.42,167 -168.1,349.2 -136.45,513.4 8.52,44.6 7.93,107.1 6.76,232 -0.25,30 -1,57.9 -20.45,79.5 -41.34,45.9 -134.54,26.5 -170.53,19.8 -157.5,-29.1 -320.59,7.7 -480.93,6.7 -160.67,-1.1 -277.58,6.2 -497.96,19.8 -349.65,21.7 -433.92,44.5 -463.82,-3.3 -21.58,-34.5 -6.4,-92.2 238.77,-410.8 162,-210.5 243.09,-315.8 399,-486.9 271.24,-297.6 423.89,-420.2 409.36,-437.3 -17.62,-20.8 -263.8,131.1 -484.35,318 -197,166.9 -335.2,329.3 -426.31,437.3 -175.63,208 -158.59,224.9 -310.41,394.2 -155.28,173.2 -255.35,284.8 -422.93,387.6 -174.15,106.8 -229.37,86.5 -460.45,231.9 -201.39,126.7 -249.37,198.8 -272.86,241.8 -16.94,31.1 -98.05,188.2 -37.52,361.1 38.08,108.8 125.66,205.2 156.9,192.2 42.11,-17.6 -72.76,-211.2 -3.41,-400.9 41.86,-114.5 138.08,-192.7 341.07,-298.1 406.02,-211 770.78,-287.8 821.98,-298.2 425.29,-86.4 765.67,-89.3 1186.89,-92.7 234.75,-2 481.1,5.3 634.45,9.9 296.4,8.8 444.6,13.2 518.4,23.2 324.1,43.8 491.9,127.1 552.6,53 12.2,-15.1 15.2,-30.4 -17.1,-212 -56.8,-320.1 -85.1,-381.7 -105.8,-420.8 -53.6,-101.4 -105.7,-145.7 -95.4,-155.7 18.4,-18 197.2,117.6 341,265.1 115.8,118.6 173.6,177.9 197.9,265 39.4,141.7 -23.6,235.3 40.9,291.5 38.6,33.7 93,27.8 197.8,16.6 190.2,-20.4 221.3,-81.9 347.9,-69.6 104.3,10.2 135.8,57.1 177.4,33.2 80.5,-46.4 30,-262 20.4,-304.8 -60,-267.4 -217.9,-410 -197.8,-427.4 22.2,-19.3 271.8,115.9 388.8,374.4 83.1,183.7 71.7,368.8 153.5,384.2 56.6,10.7 92.9,-72.2 160.3,-59.6 55.8,10.5 83.6,77.8 129.6,185.5 88.2,206.4 132.4,309.6 143.3,351.2 59.8,228.6 113.5,433.7 34,602.9 -75.9,161.9 -338.1,247.1 -859.4,410.8 -505.8,158.9 -736.7,218.7 -736.7,218.7 -309.4,80.1 -429.4,96.2 -552.6,212 -56.4,53 -118,131.2 -245.5,192.1 -103.4,49.4 -189.2,58.3 -238.8,59.7 -15,0.4 -220.9,4.5 -238.7,-59.7 -14.3,-51 100.8,-106.3 286.5,-245.1 184.7,-138.2 383.3,-317.2 368.3,-337.9 -10.7,-14.9 -132.7,48.3 -709.5,377.6 -524.55,299.6 -532.99,309.8 -600.22,329.1 -359.58,103.6 -628.31,-40.4 -1127.78,-194.3 -588.82,-181.5 -525.47,-76.9 -1382.5,-282.7 -220.65,-53 -1171.63,-287.4 -1800.85,-565.4 C 4303.01,13072 3264.5,12258.9 2734.32,11088.3 1781.21,8983.94 2965.17,6924.7 3170.9,6582.9 3761.69,5601.17 4627.17,4950.14 4803.49,4820.45 c 429.37,-315.75 975.97,-631.16 1696.26,-1046.86 501.99,-289.7 983.5,-550.16 1496.17,-1073.34 266.19,-271.65 284.68,-352.82 422.92,-490.28 187.56,-186.56 439,-321.09 725.69,-411.19 -124.6,-6.69 -249.94,-10.11 -376.13,-10.11 -3854.79,0 -6979.7,3124.98 -6979.7,6979.73 0,3854.8 3124.91,6979.7 6979.7,6979.7 3854.8,0 6979.7,-3124.9 6979.7,-6979.7 0,-2481.95 -1295.5,-4661.28 -3247.2,-5898.79 z M 8768.4,16300 c -4159.59,0 -7531.6,-3372 -7531.6,-7531.6 0,-4159.56 3372.01,-7531.55 7531.6,-7531.55 4159.6,0 7531.6,3371.99 7531.6,7531.55 0,4159.6 -3372,7531.6 -7531.6,7531.6"/>
            </g>
        </g>
    </g>
</svg>